<?xml version="1.0" encoding="UTF-8" standalone="no"?>
<!DOCTYPE svg PUBLIC "-//W3C//DTD SVG 1.1//EN"
 "http://www.w3.org/Graphics/SVG/1.1/DTD/svg11.dtd">
<!-- Generated by graphviz version 8.0.5 (20230506.1012)
 -->
<!-- Title: snakemake_dag Pages: 1 -->
<svg width="1143pt" height="1052pt"
 viewBox="0.00 0.00 1143.00 1052.00" xmlns="http://www.w3.org/2000/svg" xmlns:xlink="http://www.w3.org/1999/xlink">
<g id="graph0" class="graph" transform="scale(1 1) rotate(0) translate(4 1048)">
<title>snakemake_dag</title>
<polygon fill="white" stroke="none" points="-4,4 -4,-1048 1139,-1048 1139,4 -4,4"/>
<!-- 0 -->
<g id="node1" class="node">
<title>0</title>
<path fill="none" stroke="#78d856" stroke-width="2" d="M997,-36C997,-36 967,-36 967,-36 961,-36 955,-30 955,-24 955,-24 955,-12 955,-12 955,-6 961,0 967,0 967,0 997,0 997,0 1003,0 1009,-6 1009,-12 1009,-12 1009,-24 1009,-24 1009,-30 1003,-36 997,-36"/>
<text text-anchor="middle" x="982" y="-14.88" font-family="sans" font-size="10.00">all</text>
</g>
<!-- 1 -->
<g id="node2" class="node">
<title>1</title>
<path fill="none" stroke="#56d892" stroke-width="2" d="M1092.38,-252C1092.38,-252 937.62,-252 937.62,-252 931.62,-252 925.62,-246 925.62,-240 925.62,-240 925.62,-228 925.62,-228 925.62,-222 931.62,-216 937.62,-216 937.62,-216 1092.38,-216 1092.38,-216 1098.38,-216 1104.38,-222 1104.38,-228 1104.38,-228 1104.38,-240 1104.38,-240 1104.38,-246 1098.38,-252 1092.38,-252"/>
<text text-anchor="middle" x="1015" y="-230.88" font-family="sans" font-size="10.00">remove_low_confidence_variants</text>
</g>
<!-- 1&#45;&gt;0 -->
<g id="edge1" class="edge">
<title>1&#45;&gt;0</title>
<path fill="none" stroke="grey" stroke-width="2" d="M1010.15,-215.44C1007.45,-205.18 1004.2,-191.93 1002,-180 993.7,-134.92 987.87,-82.09 984.72,-49.58"/>
<polygon fill="grey" stroke="grey" stroke-width="2" points="987.96,-49.6 983.54,-39.97 980.99,-50.26 987.96,-49.6"/>
</g>
<!-- 16 -->
<g id="node17" class="node">
<title>16</title>
<path fill="none" stroke="#56d8c1" stroke-width="2" d="M1071.5,-180C1071.5,-180 1022.5,-180 1022.5,-180 1016.5,-180 1010.5,-174 1010.5,-168 1010.5,-168 1010.5,-156 1010.5,-156 1010.5,-150 1016.5,-144 1022.5,-144 1022.5,-144 1071.5,-144 1071.5,-144 1077.5,-144 1083.5,-150 1083.5,-156 1083.5,-156 1083.5,-168 1083.5,-168 1083.5,-174 1077.5,-180 1071.5,-180"/>
<text text-anchor="middle" x="1047" y="-158.88" font-family="sans" font-size="10.00">select_snps</text>
</g>
<!-- 1&#45;&gt;16 -->
<g id="edge30" class="edge">
<title>1&#45;&gt;16</title>
<path fill="none" stroke="grey" stroke-width="2" d="M1023.07,-215.34C1026.23,-208.43 1029.94,-200.31 1033.49,-192.56"/>
<polygon fill="grey" stroke="grey" stroke-width="2" points="1036.84,-193.45 1037.82,-182.9 1030.48,-190.54 1036.84,-193.45"/>
</g>
<!-- 26 -->
<g id="node27" class="node">
<title>26</title>
<path fill="none" stroke="#5682d8" stroke-width="2" d="M670.75,-180C670.75,-180 611.25,-180 611.25,-180 605.25,-180 599.25,-174 599.25,-168 599.25,-168 599.25,-156 599.25,-156 599.25,-150 605.25,-144 611.25,-144 611.25,-144 670.75,-144 670.75,-144 676.75,-144 682.75,-150 682.75,-156 682.75,-156 682.75,-168 682.75,-168 682.75,-174 676.75,-180 670.75,-180"/>
<text text-anchor="middle" x="641" y="-158.88" font-family="sans" font-size="10.00">bcftools_stats</text>
</g>
<!-- 1&#45;&gt;26 -->
<g id="edge53" class="edge">
<title>1&#45;&gt;26</title>
<path fill="none" stroke="grey" stroke-width="2" d="M924.63,-217.44C921.72,-216.95 918.84,-216.47 916,-216 820.51,-200.13 792.18,-203.69 696.09,-180.8"/>
<polygon fill="grey" stroke="grey" stroke-width="2" points="696.25,-176.75 685.71,-177.79 694.6,-183.55 696.25,-176.75"/>
</g>
<!-- 2 -->
<g id="node3" class="node">
<title>2</title>
<path fill="none" stroke="#88d856" stroke-width="2" d="M984.38,-324C984.38,-324 937.62,-324 937.62,-324 931.62,-324 925.62,-318 925.62,-312 925.62,-312 925.62,-300 925.62,-300 925.62,-294 931.62,-288 937.62,-288 937.62,-288 984.38,-288 984.38,-288 990.38,-288 996.38,-294 996.38,-300 996.38,-300 996.38,-312 996.38,-312 996.38,-318 990.38,-324 984.38,-324"/>
<text text-anchor="middle" x="961" y="-302.88" font-family="sans" font-size="10.00">filter_mask</text>
</g>
<!-- 2&#45;&gt;1 -->
<g id="edge5" class="edge">
<title>2&#45;&gt;1</title>
<path fill="none" stroke="grey" stroke-width="2" d="M974.63,-287.34C980.27,-280.01 986.97,-271.34 993.26,-263.18"/>
<polygon fill="grey" stroke="grey" stroke-width="2" points="996.85,-264.96 1000.19,-254.9 991.31,-260.68 996.85,-264.96"/>
</g>
<!-- 28 -->
<g id="node29" class="node">
<title>28</title>
<path fill="none" stroke="#97d856" stroke-width="2" d="M895.38,-252C895.38,-252 824.62,-252 824.62,-252 818.62,-252 812.62,-246 812.62,-240 812.62,-240 812.62,-228 812.62,-228 812.62,-222 818.62,-216 824.62,-216 824.62,-216 895.38,-216 895.38,-216 901.38,-216 907.38,-222 907.38,-228 907.38,-228 907.38,-240 907.38,-240 907.38,-246 901.38,-252 895.38,-252"/>
<text text-anchor="middle" x="860" y="-230.88" font-family="sans" font-size="10.00">get_filter_status</text>
</g>
<!-- 2&#45;&gt;28 -->
<g id="edge55" class="edge">
<title>2&#45;&gt;28</title>
<path fill="none" stroke="grey" stroke-width="2" d="M935.25,-287.15C923.38,-278.93 909.08,-269.02 896.16,-260.06"/>
<polygon fill="grey" stroke="grey" stroke-width="2" points="897.91,-256.63 887.7,-253.81 893.93,-262.39 897.91,-256.63"/>
</g>
<!-- 3 -->
<g id="node4" class="node">
<title>3</title>
<path fill="none" stroke="#68d856" stroke-width="2" d="M930.75,-396C930.75,-396 883.25,-396 883.25,-396 877.25,-396 871.25,-390 871.25,-384 871.25,-384 871.25,-372 871.25,-372 871.25,-366 877.25,-360 883.25,-360 883.25,-360 930.75,-360 930.75,-360 936.75,-360 942.75,-366 942.75,-372 942.75,-372 942.75,-384 942.75,-384 942.75,-390 936.75,-396 930.75,-396"/>
<text text-anchor="middle" x="907" y="-374.88" font-family="sans" font-size="10.00">filter_depth</text>
</g>
<!-- 3&#45;&gt;2 -->
<g id="edge7" class="edge">
<title>3&#45;&gt;2</title>
<path fill="none" stroke="grey" stroke-width="2" d="M920.63,-359.34C926.27,-352.01 932.97,-343.34 939.26,-335.18"/>
<polygon fill="grey" stroke="grey" stroke-width="2" points="942.85,-336.96 946.19,-326.9 937.31,-332.68 942.85,-336.96"/>
</g>
<!-- 4 -->
<g id="node5" class="node">
<title>4</title>
<path fill="none" stroke="#afd856" stroke-width="2" d="M944.25,-468C944.25,-468 869.75,-468 869.75,-468 863.75,-468 857.75,-462 857.75,-456 857.75,-456 857.75,-444 857.75,-444 857.75,-438 863.75,-432 869.75,-432 869.75,-432 944.25,-432 944.25,-432 950.25,-432 956.25,-438 956.25,-444 956.25,-444 956.25,-456 956.25,-456 956.25,-462 950.25,-468 944.25,-468"/>
<text text-anchor="middle" x="907" y="-446.88" font-family="sans" font-size="10.00">FilterMutectCalls</text>
</g>
<!-- 4&#45;&gt;3 -->
<g id="edge9" class="edge">
<title>4&#45;&gt;3</title>
<path fill="none" stroke="grey" stroke-width="2" d="M907,-431.34C907,-424.75 907,-417.08 907,-409.67"/>
<polygon fill="grey" stroke="grey" stroke-width="2" points="910.5,-409.9 907,-399.9 903.5,-409.9 910.5,-409.9"/>
</g>
<!-- 5 -->
<g id="node6" class="node">
<title>5</title>
<path fill="none" stroke="#5663d8" stroke-width="2" d="M867,-540C867,-540 837,-540 837,-540 831,-540 825,-534 825,-528 825,-528 825,-516 825,-516 825,-510 831,-504 837,-504 837,-504 867,-504 867,-504 873,-504 879,-510 879,-516 879,-516 879,-528 879,-528 879,-534 873,-540 867,-540"/>
<text text-anchor="middle" x="852" y="-518.88" font-family="sans" font-size="10.00">filter_af</text>
</g>
<!-- 5&#45;&gt;4 -->
<g id="edge12" class="edge">
<title>5&#45;&gt;4</title>
<path fill="none" stroke="grey" stroke-width="2" d="M865.88,-503.34C871.7,-495.93 878.6,-487.14 885.08,-478.9"/>
<polygon fill="grey" stroke="grey" stroke-width="2" points="888.51,-480.93 891.93,-470.9 883,-476.6 888.51,-480.93"/>
</g>
<!-- 6 -->
<g id="node7" class="node">
<title>6</title>
<path fill="none" stroke="#56d882" stroke-width="2" d="M894.88,-612C894.88,-612 863.12,-612 863.12,-612 857.12,-612 851.12,-606 851.12,-600 851.12,-600 851.12,-588 851.12,-588 851.12,-582 857.12,-576 863.12,-576 863.12,-576 894.88,-576 894.88,-576 900.88,-576 906.88,-582 906.88,-588 906.88,-588 906.88,-600 906.88,-600 906.88,-606 900.88,-612 894.88,-612"/>
<text text-anchor="middle" x="879" y="-590.88" font-family="sans" font-size="10.00">Mutect2</text>
</g>
<!-- 6&#45;&gt;4 -->
<g id="edge11" class="edge">
<title>6&#45;&gt;4</title>
<path fill="none" stroke="grey" stroke-width="2" d="M882.55,-575.02C887.2,-551.44 895.42,-509.73 901.04,-481.25"/>
<polygon fill="grey" stroke="grey" stroke-width="2" points="904.98,-481.33 903.48,-470.84 898.11,-479.97 904.98,-481.33"/>
</g>
<!-- 6&#45;&gt;5 -->
<g id="edge14" class="edge">
<title>6&#45;&gt;5</title>
<path fill="none" stroke="grey" stroke-width="2" d="M872.19,-575.34C869.55,-568.51 866.46,-560.5 863.51,-552.83"/>
<polygon fill="grey" stroke="grey" stroke-width="2" points="866.77,-550.97 859.9,-542.9 860.24,-553.49 866.77,-550.97"/>
</g>
<!-- 7 -->
<g id="node8" class="node">
<title>7</title>
<path fill="none" stroke="#56c1d8" stroke-width="2" d="M431.25,-756C431.25,-756 362.75,-756 362.75,-756 356.75,-756 350.75,-750 350.75,-744 350.75,-744 350.75,-732 350.75,-732 350.75,-726 356.75,-720 362.75,-720 362.75,-720 431.25,-720 431.25,-720 437.25,-720 443.25,-726 443.25,-732 443.25,-732 443.25,-744 443.25,-744 443.25,-750 437.25,-756 431.25,-756"/>
<text text-anchor="middle" x="397" y="-734.88" font-family="sans" font-size="10.00">MarkDuplicates</text>
</g>
<!-- 7&#45;&gt;6 -->
<g id="edge16" class="edge">
<title>7&#45;&gt;6</title>
<path fill="none" stroke="grey" stroke-width="2" d="M444.23,-727.88C458.87,-725.19 475.08,-722.33 490,-720 612.22,-700.87 651.98,-731.99 766,-684 799.93,-669.72 832.26,-642.37 853.57,-621.74"/>
<polygon fill="grey" stroke="grey" stroke-width="2" points="855.93,-624.34 860.56,-614.81 851,-619.38 855.93,-624.34"/>
</g>
<!-- 13 -->
<g id="node14" class="node">
<title>13</title>
<path fill="none" stroke="#5692d8" stroke-width="2" d="M745,-684C745,-684 699,-684 699,-684 693,-684 687,-678 687,-672 687,-672 687,-660 687,-660 687,-654 693,-648 699,-648 699,-648 745,-648 745,-648 751,-648 757,-654 757,-660 757,-660 757,-672 757,-672 757,-678 751,-684 745,-684"/>
<text text-anchor="middle" x="722" y="-662.88" font-family="sans" font-size="10.00">index_bam</text>
</g>
<!-- 7&#45;&gt;13 -->
<g id="edge26" class="edge">
<title>7&#45;&gt;13</title>
<path fill="none" stroke="grey" stroke-width="2" d="M443.91,-726.9C505.12,-713.71 611.71,-690.75 673.63,-677.42"/>
<polygon fill="grey" stroke="grey" stroke-width="2" points="675.1,-680.25 684.14,-674.72 673.63,-673.41 675.1,-680.25"/>
</g>
<!-- 20 -->
<g id="node21" class="node">
<title>20</title>
<path fill="none" stroke="#d86656" stroke-width="2" d="M391.75,-468C391.75,-468 326.25,-468 326.25,-468 320.25,-468 314.25,-462 314.25,-456 314.25,-456 314.25,-444 314.25,-444 314.25,-438 320.25,-432 326.25,-432 326.25,-432 391.75,-432 391.75,-432 397.75,-432 403.75,-438 403.75,-444 403.75,-444 403.75,-456 403.75,-456 403.75,-462 397.75,-468 391.75,-468"/>
<text text-anchor="middle" x="359" y="-446.88" font-family="sans" font-size="10.00">get_insert_size</text>
</g>
<!-- 7&#45;&gt;20 -->
<g id="edge43" class="edge">
<title>7&#45;&gt;20</title>
<path fill="none" stroke="grey" stroke-width="2" d="M391.5,-719.01C388.58,-708.82 385.15,-695.8 383,-684 369.9,-612.19 363.37,-526.53 360.64,-481.74"/>
<polygon fill="grey" stroke="grey" stroke-width="2" points="363.97,-481.75 359.9,-471.97 356.98,-482.15 363.97,-481.75"/>
</g>
<!-- 22 -->
<g id="node23" class="node">
<title>22</title>
<path fill="none" stroke="#bed856" stroke-width="2" d="M237.62,-684C237.62,-684 78.38,-684 78.38,-684 72.38,-684 66.38,-678 66.38,-672 66.38,-672 66.38,-660 66.38,-660 66.38,-654 72.38,-648 78.38,-648 78.38,-648 237.62,-648 237.62,-648 243.62,-648 249.62,-654 249.62,-660 249.62,-660 249.62,-672 249.62,-672 249.62,-678 243.62,-684 237.62,-684"/>
<text text-anchor="middle" x="158" y="-662.88" font-family="sans" font-size="10.00">CollectAlignmentSummaryMetrics</text>
</g>
<!-- 7&#45;&gt;22 -->
<g id="edge46" class="edge">
<title>7&#45;&gt;22</title>
<path fill="none" stroke="grey" stroke-width="2" d="M349.78,-723.17C316.1,-713.3 270.14,-699.84 231.66,-688.57"/>
<polygon fill="grey" stroke="grey" stroke-width="2" points="231.77,-684.37 221.19,-684.92 229.8,-691.09 231.77,-684.37"/>
</g>
<!-- 23 -->
<g id="node24" class="node">
<title>23</title>
<path fill="none" stroke="#d89556" stroke-width="2" d="M532.75,-684C532.75,-684 437.25,-684 437.25,-684 431.25,-684 425.25,-678 425.25,-672 425.25,-672 425.25,-660 425.25,-660 425.25,-654 431.25,-648 437.25,-648 437.25,-648 532.75,-648 532.75,-648 538.75,-648 544.75,-654 544.75,-660 544.75,-660 544.75,-672 544.75,-672 544.75,-678 538.75,-684 532.75,-684"/>
<text text-anchor="middle" x="485" y="-662.88" font-family="sans" font-size="10.00">CollectGcBiasMetrics</text>
</g>
<!-- 7&#45;&gt;23 -->
<g id="edge48" class="edge">
<title>7&#45;&gt;23</title>
<path fill="none" stroke="grey" stroke-width="2" d="M419.21,-719.34C429.24,-711.36 441.29,-701.77 452.33,-692.99"/>
<polygon fill="grey" stroke="grey" stroke-width="2" points="454.85,-694.87 460.49,-685.9 450.49,-689.39 454.85,-694.87"/>
</g>
<!-- 24 -->
<g id="node25" class="node">
<title>24</title>
<path fill="none" stroke="#56d8d0" stroke-width="2" d="M492.5,-396C492.5,-396 371.5,-396 371.5,-396 365.5,-396 359.5,-390 359.5,-384 359.5,-384 359.5,-372 359.5,-372 359.5,-366 365.5,-360 371.5,-360 371.5,-360 492.5,-360 492.5,-360 498.5,-360 504.5,-366 504.5,-372 504.5,-372 504.5,-384 504.5,-384 504.5,-390 498.5,-396 492.5,-396"/>
<text text-anchor="middle" x="432" y="-374.88" font-family="sans" font-size="10.00">CollectQualityYieldMetrics</text>
</g>
<!-- 7&#45;&gt;24 -->
<g id="edge49" class="edge">
<title>7&#45;&gt;24</title>
<path fill="none" stroke="grey" stroke-width="2" d="M398.74,-719.25C404.33,-661.99 421.96,-481.72 429.02,-409.43"/>
<polygon fill="grey" stroke="grey" stroke-width="2" points="432.76,-410.15 430.25,-399.86 425.8,-409.47 432.76,-410.15"/>
</g>
<!-- 8 -->
<g id="node9" class="node">
<title>8</title>
<path fill="none" stroke="#56d8a2" stroke-width="2" d="M447.5,-828C447.5,-828 356.5,-828 356.5,-828 350.5,-828 344.5,-822 344.5,-816 344.5,-816 344.5,-804 344.5,-804 344.5,-798 350.5,-792 356.5,-792 356.5,-792 447.5,-792 447.5,-792 453.5,-792 459.5,-798 459.5,-804 459.5,-804 459.5,-816 459.5,-816 459.5,-822 453.5,-828 447.5,-828"/>
<text text-anchor="middle" x="402" y="-806.88" font-family="sans" font-size="10.00">sam_to_sorted_bam</text>
</g>
<!-- 8&#45;&gt;7 -->
<g id="edge20" class="edge">
<title>8&#45;&gt;7</title>
<path fill="none" stroke="grey" stroke-width="2" d="M400.74,-791.34C400.27,-784.75 399.72,-777.08 399.19,-769.67"/>
<polygon fill="grey" stroke="grey" stroke-width="2" points="402.48,-769.63 398.28,-759.9 395.5,-770.13 402.48,-769.63"/>
</g>
<!-- 25 -->
<g id="node26" class="node">
<title>25</title>
<path fill="none" stroke="#56a2d8" stroke-width="2" d="M593.38,-756C593.38,-756 510.62,-756 510.62,-756 504.62,-756 498.62,-750 498.62,-744 498.62,-744 498.62,-732 498.62,-732 498.62,-726 504.62,-720 510.62,-720 510.62,-720 593.38,-720 593.38,-720 599.38,-720 605.38,-726 605.38,-732 605.38,-732 605.38,-744 605.38,-744 605.38,-750 599.38,-756 593.38,-756"/>
<text text-anchor="middle" x="552" y="-734.88" font-family="sans" font-size="10.00">CollectWgsMetrics</text>
</g>
<!-- 8&#45;&gt;25 -->
<g id="edge51" class="edge">
<title>8&#45;&gt;25</title>
<path fill="none" stroke="grey" stroke-width="2" d="M440.24,-791.15C459.03,-782.38 481.92,-771.71 502.07,-762.3"/>
<polygon fill="grey" stroke="grey" stroke-width="2" points="503.99,-765.33 511.57,-757.93 501.03,-758.99 503.99,-765.33"/>
</g>
<!-- 9 -->
<g id="node10" class="node">
<title>9</title>
<path fill="none" stroke="#d8d356" stroke-width="2" d="M411.5,-900C411.5,-900 368.5,-900 368.5,-900 362.5,-900 356.5,-894 356.5,-888 356.5,-888 356.5,-876 356.5,-876 356.5,-870 362.5,-864 368.5,-864 368.5,-864 411.5,-864 411.5,-864 417.5,-864 423.5,-870 423.5,-876 423.5,-876 423.5,-888 423.5,-888 423.5,-894 417.5,-900 411.5,-900"/>
<text text-anchor="middle" x="390" y="-878.88" font-family="sans" font-size="10.00">bwa_mem</text>
</g>
<!-- 9&#45;&gt;8 -->
<g id="edge21" class="edge">
<title>9&#45;&gt;8</title>
<path fill="none" stroke="grey" stroke-width="2" d="M393.03,-863.34C394.16,-856.75 395.47,-849.08 396.74,-841.67"/>
<polygon fill="grey" stroke="grey" stroke-width="2" points="400.69,-841.35 398.93,-830.9 393.79,-840.17 400.69,-841.35"/>
</g>
<!-- 10 -->
<g id="node11" class="node">
<title>10</title>
<path fill="none" stroke="#ced856" stroke-width="2" d="M409.62,-972C409.62,-972 346.38,-972 346.38,-972 340.38,-972 334.38,-966 334.38,-960 334.38,-960 334.38,-948 334.38,-948 334.38,-942 340.38,-936 346.38,-936 346.38,-936 409.62,-936 409.62,-936 415.62,-936 421.62,-942 421.62,-948 421.62,-948 421.62,-960 421.62,-960 421.62,-966 415.62,-972 409.62,-972"/>
<text text-anchor="middle" x="378" y="-950.88" font-family="sans" font-size="10.00">bwa_index_ref</text>
</g>
<!-- 10&#45;&gt;9 -->
<g id="edge24" class="edge">
<title>10&#45;&gt;9</title>
<path fill="none" stroke="grey" stroke-width="2" d="M381.03,-935.34C382.16,-928.75 383.47,-921.08 384.74,-913.67"/>
<polygon fill="grey" stroke="grey" stroke-width="2" points="388.69,-913.35 386.93,-902.9 381.79,-912.17 388.69,-913.35"/>
</g>
<!-- 11 -->
<g id="node12" class="node">
<title>11</title>
<path fill="none" stroke="#9fd856" stroke-width="2" d="M726,-1044C726,-1044 692,-1044 692,-1044 686,-1044 680,-1038 680,-1032 680,-1032 680,-1020 680,-1020 680,-1014 686,-1008 692,-1008 692,-1008 726,-1008 726,-1008 732,-1008 738,-1014 738,-1020 738,-1020 738,-1032 738,-1032 738,-1038 732,-1044 726,-1044"/>
<text text-anchor="middle" x="709" y="-1022.88" font-family="sans" font-size="10.00">copy_ref</text>
</g>
<!-- 11&#45;&gt;1 -->
<g id="edge4" class="edge">
<title>11&#45;&gt;1</title>
<path fill="none" stroke="grey" stroke-width="2" d="M738.8,-1023.11C809.62,-1018.16 985.74,-1003 1035,-972 1075.8,-946.32 1097,-931.21 1097,-883 1097,-883 1097,-883 1097,-377 1097,-332.32 1066.18,-289.05 1042.33,-262.26"/>
<polygon fill="grey" stroke="grey" stroke-width="2" points="1044.97,-259.79 1035.61,-254.83 1039.83,-264.54 1044.97,-259.79"/>
</g>
<!-- 11&#45;&gt;2 -->
<g id="edge6" class="edge">
<title>11&#45;&gt;2</title>
<path fill="none" stroke="grey" stroke-width="2" d="M738.53,-1022.56C803.63,-1016.71 957.12,-1000.26 1000,-972 1039.62,-945.88 1059,-930.46 1059,-883 1059,-883 1059,-883 1059,-449 1059,-402.11 1022.36,-359.47 993.88,-333.41"/>
<polygon fill="grey" stroke="grey" stroke-width="2" points="996.04,-330.89 986.22,-326.91 991.42,-336.14 996.04,-330.89"/>
</g>
<!-- 11&#45;&gt;3 -->
<g id="edge8" class="edge">
<title>11&#45;&gt;3</title>
<path fill="none" stroke="grey" stroke-width="2" d="M700.94,-1007.03C689.79,-980.48 671,-928.94 671,-883 671,-883 671,-883 671,-809 671,-713.74 659,-690.26 659,-595 659,-595 659,-595 659,-521 659,-430.39 785.22,-396.79 857.57,-384.98"/>
<polygon fill="grey" stroke="grey" stroke-width="2" points="859.05,-387.99 868.41,-383.02 857.99,-381.07 859.05,-387.99"/>
</g>
<!-- 11&#45;&gt;4 -->
<g id="edge10" class="edge">
<title>11&#45;&gt;4</title>
<path fill="none" stroke="grey" stroke-width="2" d="M738.92,-1024.92C817.01,-1023 1021,-1006.19 1021,-883 1021,-883 1021,-883 1021,-593 1021,-543.65 978.61,-501.68 945.53,-476.45"/>
<polygon fill="grey" stroke="grey" stroke-width="2" points="947.31,-472.95 937.18,-469.85 943.17,-478.59 947.31,-472.95"/>
</g>
<!-- 11&#45;&gt;5 -->
<g id="edge13" class="edge">
<title>11&#45;&gt;5</title>
<path fill="none" stroke="grey" stroke-width="2" d="M711.11,-1007.06C714.71,-977.25 722.58,-915.67 732,-864 737.88,-831.75 738.51,-823.38 748,-792 774.89,-703.13 817.39,-601.87 838.78,-552.8"/>
<polygon fill="grey" stroke="grey" stroke-width="2" points="842.17,-553.5 842.98,-542.94 835.76,-550.69 842.17,-553.5"/>
</g>
<!-- 11&#45;&gt;6 -->
<g id="edge17" class="edge">
<title>11&#45;&gt;6</title>
<path fill="none" stroke="grey" stroke-width="2" d="M713.77,-1007.36C716.53,-997.06 720.03,-983.81 723,-972 743.06,-892.23 733.36,-867.5 766,-792 788.79,-739.27 808.9,-734.1 837,-684 847.83,-664.7 858.45,-642.14 866.31,-624.56"/>
<polygon fill="grey" stroke="grey" stroke-width="2" points="869.68,-625.32 870.5,-614.76 863.27,-622.5 869.68,-625.32"/>
</g>
<!-- 11&#45;&gt;9 -->
<g id="edge22" class="edge">
<title>11&#45;&gt;9</title>
<path fill="none" stroke="grey" stroke-width="2" d="M679.17,-1023.8C632.51,-1020.76 540.68,-1010 474,-972 459.85,-963.93 432.52,-933.61 412.87,-910.58"/>
<polygon fill="grey" stroke="grey" stroke-width="2" points="414.85,-908.31 405.72,-902.93 409.5,-912.83 414.85,-908.31"/>
</g>
<!-- 11&#45;&gt;10 -->
<g id="edge25" class="edge">
<title>11&#45;&gt;10</title>
<path fill="none" stroke="grey" stroke-width="2" d="M679.31,-1020.17C628.96,-1011.77 523.73,-993.32 436,-972 435.59,-971.9 435.18,-971.8 434.76,-971.7"/>
<polygon fill="grey" stroke="grey" stroke-width="2" points="435.09,-967.65 424.53,-968.51 433.33,-974.42 435.09,-967.65"/>
</g>
<!-- 14 -->
<g id="node15" class="node">
<title>14</title>
<path fill="none" stroke="#5673d8" stroke-width="2" d="M851.38,-828C851.38,-828 786.62,-828 786.62,-828 780.62,-828 774.62,-822 774.62,-816 774.62,-816 774.62,-804 774.62,-804 774.62,-798 780.62,-792 786.62,-792 786.62,-792 851.38,-792 851.38,-792 857.38,-792 863.38,-798 863.38,-804 863.38,-804 863.38,-816 863.38,-816 863.38,-822 857.38,-828 851.38,-828"/>
<text text-anchor="middle" x="819" y="-806.88" font-family="sans" font-size="10.00">gatk_index_ref</text>
</g>
<!-- 11&#45;&gt;14 -->
<g id="edge27" class="edge">
<title>11&#45;&gt;14</title>
<path fill="none" stroke="grey" stroke-width="2" d="M730.47,-1007.11C740.83,-997.56 752.77,-985.1 761,-972 787.25,-930.21 803.85,-874.86 812.28,-841.15"/>
<polygon fill="grey" stroke="grey" stroke-width="2" points="816.37,-841.08 815.3,-830.54 809.57,-839.45 816.37,-841.08"/>
</g>
<!-- 15 -->
<g id="node16" class="node">
<title>15</title>
<path fill="none" stroke="#d85656" stroke-width="2" d="M981,-828C981,-828 893,-828 893,-828 887,-828 881,-822 881,-816 881,-816 881,-804 881,-804 881,-798 887,-792 893,-792 893,-792 981,-792 981,-792 987,-792 993,-798 993,-804 993,-804 993,-816 993,-816 993,-822 987,-828 981,-828"/>
<text text-anchor="middle" x="937" y="-806.88" font-family="sans" font-size="10.00">samtools_index_ref</text>
</g>
<!-- 11&#45;&gt;15 -->
<g id="edge28" class="edge">
<title>11&#45;&gt;15</title>
<path fill="none" stroke="grey" stroke-width="2" d="M737.04,-1007.1C751.56,-997.36 769.29,-984.72 784,-972 833.96,-928.8 885.55,-871.33 914.24,-838.03"/>
<polygon fill="grey" stroke="grey" stroke-width="2" points="917.53,-840.39 921.37,-830.52 912.21,-835.84 917.53,-840.39"/>
</g>
<!-- 11&#45;&gt;16 -->
<g id="edge29" class="edge">
<title>11&#45;&gt;16</title>
<path fill="none" stroke="grey" stroke-width="2" d="M738.91,-1023.6C815.25,-1019.56 1015.17,-1005.95 1071,-972 1112.63,-946.69 1135,-931.72 1135,-883 1135,-883 1135,-883 1135,-305 1135,-264.25 1134.93,-250.34 1113,-216 1106.38,-205.63 1097.03,-196.38 1087.45,-188.61"/>
<polygon fill="grey" stroke="grey" stroke-width="2" points="1089.16,-185.02 1079.07,-181.8 1084.95,-190.61 1089.16,-185.02"/>
</g>
<!-- 11&#45;&gt;22 -->
<g id="edge45" class="edge">
<title>11&#45;&gt;22</title>
<path fill="none" stroke="grey" stroke-width="2" d="M679.44,-1025.48C545.25,-1026.88 0,-1023.91 0,-883 0,-883 0,-883 0,-809 0,-752.85 55.88,-713.26 101.18,-690.4"/>
<polygon fill="grey" stroke="grey" stroke-width="2" points="103.25,-693.32 110.72,-685.81 100.2,-687.02 103.25,-693.32"/>
</g>
<!-- 11&#45;&gt;23 -->
<g id="edge47" class="edge">
<title>11&#45;&gt;23</title>
<path fill="none" stroke="grey" stroke-width="2" d="M679.03,-1017.39C653.66,-1009.63 617.75,-995.35 594,-972 518.03,-897.3 516.61,-859.17 490,-756 485.09,-736.96 483.82,-714.9 483.79,-697.51"/>
<polygon fill="grey" stroke="grey" stroke-width="2" points="487.33,-697.76 483.98,-687.7 480.33,-697.65 487.33,-697.76"/>
</g>
<!-- 11&#45;&gt;25 -->
<g id="edge50" class="edge">
<title>11&#45;&gt;25</title>
<path fill="none" stroke="grey" stroke-width="2" d="M679.03,-1014.21C659.28,-1005.64 634.33,-991.78 619,-972 571.6,-910.83 557.72,-817.35 553.67,-769.51"/>
<polygon fill="grey" stroke="grey" stroke-width="2" points="556.96,-769.47 552.73,-759.76 549.98,-769.99 556.96,-769.47"/>
</g>
<!-- 11&#45;&gt;26 -->
<g id="edge52" class="edge">
<title>11&#45;&gt;26</title>
<path fill="none" stroke="grey" stroke-width="2" d="M692.13,-1007.35C669.74,-981.98 633,-932.77 633,-883 633,-883 633,-883 633,-809 633,-713.74 621,-690.26 621,-595 621,-595 621,-595 621,-305 621,-266.1 628.45,-221.78 634.26,-193.16"/>
<polygon fill="grey" stroke="grey" stroke-width="2" points="638.22,-193.33 636.86,-182.82 631.37,-191.88 638.22,-193.33"/>
</g>
<!-- 12 -->
<g id="node13" class="node">
<title>12</title>
<path fill="none" stroke="#d87556" stroke-width="2" d="M303.12,-972C303.12,-972 254.88,-972 254.88,-972 248.88,-972 242.88,-966 242.88,-960 242.88,-960 242.88,-948 242.88,-948 242.88,-942 248.88,-936 254.88,-936 254.88,-936 303.12,-936 303.12,-936 309.12,-936 315.12,-942 315.12,-948 315.12,-948 315.12,-960 315.12,-960 315.12,-966 309.12,-972 303.12,-972"/>
<text text-anchor="middle" x="279" y="-950.88" font-family="sans" font-size="10.00">clean_fastq</text>
</g>
<!-- 12&#45;&gt;9 -->
<g id="edge23" class="edge">
<title>12&#45;&gt;9</title>
<path fill="none" stroke="grey" stroke-width="2" d="M307.3,-935.15C320.61,-926.76 336.69,-916.62 351.12,-907.52"/>
<polygon fill="grey" stroke="grey" stroke-width="2" points="353.16,-910.11 359.75,-901.81 349.43,-904.19 353.16,-910.11"/>
</g>
<!-- 17 -->
<g id="node18" class="node">
<title>17</title>
<path fill="none" stroke="#56d8b1" stroke-width="2" d="M529,-108C529,-108 499,-108 499,-108 493,-108 487,-102 487,-96 487,-96 487,-84 487,-84 487,-78 493,-72 499,-72 499,-72 529,-72 529,-72 535,-72 541,-78 541,-84 541,-84 541,-96 541,-96 541,-102 535,-108 529,-108"/>
<text text-anchor="middle" x="514" y="-86.88" font-family="sans" font-size="10.00">multiqc</text>
</g>
<!-- 12&#45;&gt;17 -->
<g id="edge32" class="edge">
<title>12&#45;&gt;17</title>
<path fill="none" stroke="grey" stroke-width="2" d="M286.85,-935.01C297.71,-908.43 316,-856.86 316,-811 316,-811 316,-811 316,-593 316,-496.96 286,-475.04 286,-379 286,-379 286,-379 286,-233 286,-145.75 407.8,-110.18 473.35,-97.36"/>
<polygon fill="grey" stroke="grey" stroke-width="2" points="474.84,-100.28 484.04,-95.02 473.57,-93.39 474.84,-100.28"/>
</g>
<!-- 19 -->
<g id="node20" class="node">
<title>19</title>
<path fill="none" stroke="#59d856" stroke-width="2" d="M81.38,-612C81.38,-612 16.62,-612 16.62,-612 10.62,-612 4.62,-606 4.62,-600 4.62,-600 4.62,-588 4.62,-588 4.62,-582 10.62,-576 16.62,-576 16.62,-576 81.38,-576 81.38,-576 87.38,-576 93.38,-582 93.38,-588 93.38,-588 93.38,-600 93.38,-600 93.38,-606 87.38,-612 81.38,-612"/>
<text text-anchor="middle" x="49" y="-590.88" font-family="sans" font-size="10.00">qc_clean_fastq</text>
</g>
<!-- 12&#45;&gt;19 -->
<g id="edge42" class="edge">
<title>12&#45;&gt;19</title>
<path fill="none" stroke="grey" stroke-width="2" d="M242.13,-948.42C174.62,-937.75 38,-904.61 38,-811 38,-811 38,-811 38,-737 38,-698.54 42.06,-654.39 45.25,-625.67"/>
<polygon fill="grey" stroke="grey" stroke-width="2" points="49.05,-626.23 46.72,-615.9 42.1,-625.43 49.05,-626.23"/>
</g>
<!-- 21 -->
<g id="node22" class="node">
<title>21</title>
<path fill="none" stroke="#d88556" stroke-width="2" d="M275.5,-540C275.5,-540 172.5,-540 172.5,-540 166.5,-540 160.5,-534 160.5,-528 160.5,-528 160.5,-516 160.5,-516 160.5,-510 166.5,-504 172.5,-504 172.5,-504 275.5,-504 275.5,-504 281.5,-504 287.5,-510 287.5,-516 287.5,-516 287.5,-528 287.5,-528 287.5,-534 281.5,-540 275.5,-540"/>
<text text-anchor="middle" x="224" y="-518.88" font-family="sans" font-size="10.00">identify_species_reads</text>
</g>
<!-- 12&#45;&gt;21 -->
<g id="edge44" class="edge">
<title>12&#45;&gt;21</title>
<path fill="none" stroke="grey" stroke-width="2" d="M278.79,-935.07C278.5,-908.13 278,-855.62 278,-811 278,-811 278,-811 278,-665 278,-623.69 257.79,-579.77 242.09,-551.91"/>
<polygon fill="grey" stroke="grey" stroke-width="2" points="244.79,-549.86 236.72,-543 238.74,-553.4 244.79,-549.86"/>
</g>
<!-- 13&#45;&gt;6 -->
<g id="edge18" class="edge">
<title>13&#45;&gt;6</title>
<path fill="none" stroke="grey" stroke-width="2" d="M757.63,-649.12C781.73,-638.37 813.61,-624.16 838.65,-612.99"/>
<polygon fill="grey" stroke="grey" stroke-width="2" points="840.62,-616.05 848.33,-608.78 837.77,-609.66 840.62,-616.05"/>
</g>
<!-- 14&#45;&gt;6 -->
<g id="edge19" class="edge">
<title>14&#45;&gt;6</title>
<path fill="none" stroke="grey" stroke-width="2" d="M845.85,-791.04C857.01,-781.98 868.79,-769.94 875,-756 893.79,-713.79 889.99,-659 884.93,-625.45"/>
<polygon fill="grey" stroke="grey" stroke-width="2" points="887.93,-624.16 882.83,-614.88 881.03,-625.32 887.93,-624.16"/>
</g>
<!-- 15&#45;&gt;6 -->
<g id="edge15" class="edge">
<title>15&#45;&gt;6</title>
<path fill="none" stroke="grey" stroke-width="2" d="M936.77,-791.48C935.86,-761.25 931.68,-697.74 913,-648 909.8,-639.47 905.08,-630.88 900.17,-623.17"/>
<polygon fill="grey" stroke="grey" stroke-width="2" points="902.51,-620.92 894,-614.62 896.72,-624.86 902.51,-620.92"/>
</g>
<!-- 16&#45;&gt;0 -->
<g id="edge3" class="edge">
<title>16&#45;&gt;0</title>
<path fill="none" stroke="grey" stroke-width="2" d="M1038.77,-143.02C1027.88,-119.22 1008.54,-76.97 995.49,-48.48"/>
<polygon fill="grey" stroke="grey" stroke-width="2" points="998.51,-46.47 991.17,-38.84 992.15,-49.39 998.51,-46.47"/>
</g>
<!-- 17&#45;&gt;0 -->
<g id="edge2" class="edge">
<title>17&#45;&gt;0</title>
<path fill="none" stroke="grey" stroke-width="2" d="M541.87,-84.83C621.21,-72.96 848.51,-38.97 941.55,-25.05"/>
<polygon fill="grey" stroke="grey" stroke-width="2" points="942.9,-28.09 952.27,-23.15 941.86,-21.17 942.9,-28.09"/>
</g>
<!-- 18 -->
<g id="node19" class="node">
<title>18</title>
<path fill="none" stroke="#56b1d8" stroke-width="2" d="M769.25,-180C769.25,-180 712.75,-180 712.75,-180 706.75,-180 700.75,-174 700.75,-168 700.75,-168 700.75,-156 700.75,-156 700.75,-150 706.75,-144 712.75,-144 712.75,-144 769.25,-144 769.25,-144 775.25,-144 781.25,-150 781.25,-156 781.25,-156 781.25,-168 781.25,-168 781.25,-174 775.25,-180 769.25,-180"/>
<text text-anchor="middle" x="741" y="-158.88" font-family="sans" font-size="10.00">qc_raw_fastq</text>
</g>
<!-- 18&#45;&gt;17 -->
<g id="edge35" class="edge">
<title>18&#45;&gt;17</title>
<path fill="none" stroke="grey" stroke-width="2" d="M699.87,-146.58C697.21,-145.7 694.57,-144.83 692,-144 644.99,-128.85 590.5,-112.86 554.32,-102.45"/>
<polygon fill="grey" stroke="grey" stroke-width="2" points="554.44,-98.27 543.87,-98.88 552.52,-105 554.44,-98.27"/>
</g>
<!-- 19&#45;&gt;17 -->
<g id="edge41" class="edge">
<title>19&#45;&gt;17</title>
<path fill="none" stroke="grey" stroke-width="2" d="M53.77,-575.22C60.5,-548.47 72,-496.2 72,-451 72,-451 72,-451 72,-233 72,-188.47 81.59,-169.63 118,-144 174.65,-104.12 383.98,-94.21 473.24,-91.78"/>
<polygon fill="grey" stroke="grey" stroke-width="2" points="473.1,-95.21 483.01,-91.46 472.92,-88.21 473.1,-95.21"/>
</g>
<!-- 20&#45;&gt;17 -->
<g id="edge31" class="edge">
<title>20&#45;&gt;17</title>
<path fill="none" stroke="grey" stroke-width="2" d="M353.2,-431.29C345,-404.63 331,-352.48 331,-307 331,-307 331,-307 331,-233 331,-161.15 420.15,-120.42 474,-102.37"/>
<polygon fill="grey" stroke="grey" stroke-width="2" points="475.75,-104.85 484.21,-98.47 473.62,-98.18 475.75,-104.85"/>
</g>
<!-- 21&#45;&gt;17 -->
<g id="edge33" class="edge">
<title>21&#45;&gt;17</title>
<path fill="none" stroke="grey" stroke-width="2" d="M226.49,-503.11C230,-476.22 236,-423.78 236,-379 236,-379 236,-379 236,-233 236,-190.33 239.39,-171.52 272,-144 302.02,-118.66 412.43,-102.5 473.21,-95.32"/>
<polygon fill="grey" stroke="grey" stroke-width="2" points="473.55,-98.46 483.09,-93.84 472.76,-91.5 473.55,-98.46"/>
</g>
<!-- 22&#45;&gt;17 -->
<g id="edge34" class="edge">
<title>22&#45;&gt;17</title>
<path fill="none" stroke="grey" stroke-width="2" d="M152.61,-647.26C145,-620.56 132,-568.36 132,-523 132,-523 132,-523 132,-233 132,-170.8 183.73,-170.5 240,-144 317.34,-107.57 418.24,-96.18 473.48,-92.62"/>
<polygon fill="grey" stroke="grey" stroke-width="2" points="473.39,-95.96 483.17,-91.89 472.98,-88.97 473.39,-95.96"/>
</g>
<!-- 23&#45;&gt;17 -->
<g id="edge38" class="edge">
<title>23&#45;&gt;17</title>
<path fill="none" stroke="grey" stroke-width="2" d="M495.18,-647.27C509.27,-621.01 533,-569.84 533,-523 533,-523 533,-523 533,-233 533,-194.31 525.99,-150.21 520.48,-121.56"/>
<polygon fill="grey" stroke="grey" stroke-width="2" points="523.33,-119.95 517.94,-110.83 516.46,-121.32 523.33,-119.95"/>
</g>
<!-- 24&#45;&gt;17 -->
<g id="edge39" class="edge">
<title>24&#45;&gt;17</title>
<path fill="none" stroke="grey" stroke-width="2" d="M437.13,-359.11C450.82,-311.36 488.34,-180.51 505.38,-121.08"/>
<polygon fill="grey" stroke="grey" stroke-width="2" points="509.48,-121.46 508.87,-110.88 502.75,-119.53 509.48,-121.46"/>
</g>
<!-- 25&#45;&gt;17 -->
<g id="edge36" class="edge">
<title>25&#45;&gt;17</title>
<path fill="none" stroke="grey" stroke-width="2" d="M553.71,-719.14C558.54,-666.88 572,-509.72 572,-379 572,-379 572,-379 572,-305 572,-232.21 565.94,-212.74 542,-144 539.17,-135.87 535.25,-127.47 531.23,-119.81"/>
<polygon fill="grey" stroke="grey" stroke-width="2" points="533.9,-117.59 525.99,-110.54 527.77,-120.99 533.9,-117.59"/>
</g>
<!-- 26&#45;&gt;17 -->
<g id="edge37" class="edge">
<title>26&#45;&gt;17</title>
<path fill="none" stroke="grey" stroke-width="2" d="M608.62,-143.15C591.62,-133.78 570.67,-122.23 552.8,-112.39"/>
<polygon fill="grey" stroke="grey" stroke-width="2" points="554.03,-108.97 543.58,-107.2 550.65,-115.1 554.03,-108.97"/>
</g>
<!-- 27 -->
<g id="node28" class="node">
<title>27</title>
<path fill="none" stroke="#56d0d8" stroke-width="2" d="M908.5,-180C908.5,-180 811.5,-180 811.5,-180 805.5,-180 799.5,-174 799.5,-168 799.5,-168 799.5,-156 799.5,-156 799.5,-150 805.5,-144 811.5,-144 811.5,-144 908.5,-144 908.5,-144 914.5,-144 920.5,-150 920.5,-156 920.5,-156 920.5,-168 920.5,-168 920.5,-174 914.5,-180 908.5,-180"/>
<text text-anchor="middle" x="860" y="-158.88" font-family="sans" font-size="10.00">combine_filter_status</text>
</g>
<!-- 27&#45;&gt;17 -->
<g id="edge40" class="edge">
<title>27&#45;&gt;17</title>
<path fill="none" stroke="grey" stroke-width="2" d="M798.58,-145.9C795.68,-145.25 792.81,-144.61 790,-144 706.71,-125.9 608.57,-107.82 554.63,-98.16"/>
<polygon fill="grey" stroke="grey" stroke-width="2" points="554.36,-94.21 543.91,-95.9 553.14,-101.1 554.36,-94.21"/>
</g>
<!-- 28&#45;&gt;27 -->
<g id="edge54" class="edge">
<title>28&#45;&gt;27</title>
<path fill="none" stroke="grey" stroke-width="2" d="M860,-215.34C860,-208.75 860,-201.08 860,-193.67"/>
<polygon fill="grey" stroke="grey" stroke-width="2" points="863.5,-193.9 860,-183.9 856.5,-193.9 863.5,-193.9"/>
</g>
</g>
</svg>
